<?xml version="1.0" encoding="UTF-8"?>
<svg id="_图层_2" data-name="图层 2" xmlns="http://www.w3.org/2000/svg" viewBox="0 0 272.95 56.51">
  <defs>
    <style>
      .cls-1 {
        fill: #fff;
      }
    </style>
  </defs>
  <g id="Layer_1" data-name="Layer 1">
    <g>
      <path class="cls-1" d="M130.31,44.88c-1.71,0-3.25-.3-4.62-.9-1.37-.6-2.45-1.48-3.24-2.65-.79-1.17-1.19-2.61-1.19-4.33,0-1.48.28-2.71.85-3.67.57-.96,1.34-1.73,2.32-2.31.98-.58,2.08-1.01,3.31-1.31,1.23-.3,2.5-.51,3.81-.64,1.58-.17,2.86-.32,3.83-.45.97-.13,1.68-.33,2.12-.62.44-.28.67-.72.67-1.3v-.14c0-.84-.18-1.55-.55-2.14s-.89-1.05-1.59-1.36c-.7-.32-1.56-.47-2.6-.47s-1.91.15-2.68.46c-.77.31-1.39.72-1.87,1.23s-.81,1.08-1.01,1.69l-5.84-.9c.44-1.59,1.19-2.93,2.27-3.99,1.07-1.07,2.39-1.87,3.95-2.42s3.29-.82,5.2-.82c1.36,0,2.69.16,3.99.47,1.3.32,2.48.83,3.53,1.53,1.05.7,1.89,1.63,2.51,2.77s.93,2.55.93,4.2v17.55h-6.04v-3.62h-.22c-.39.74-.93,1.43-1.63,2.06-.7.63-1.56,1.14-2.58,1.52-1.03.38-2.24.57-3.65.57ZM131.92,40.33c1.29,0,2.41-.25,3.36-.75.95-.5,1.67-1.16,2.18-1.98.51-.82.76-1.72.76-2.7v-3.03c-.21.16-.55.3-1.01.44-.46.13-.99.25-1.58.36-.59.1-1.18.2-1.77.28-.59.09-1.11.15-1.56.2-.92.13-1.76.34-2.51.63-.75.29-1.35.69-1.78,1.18-.44.5-.66,1.15-.66,1.95,0,.74.19,1.37.58,1.87.39.51.92.89,1.6,1.15.68.26,1.47.39,2.38.39Z"/>
      <path class="cls-1" d="M247.3,39.16c-.29.05-.39.05-.87.09-.49.05-.88.07-1.19.07-.97,0-1.66-.21-2.07-.64-.41-.43-.62-1.11-.62-2.04v-10.64h4.81v-5.39h-4.81v-6.79h-6.26v6.79h-2.86v5.39h2.86v11.23c0,2.29.68,4.04,2.04,5.26,1.36,1.22,3.34,1.82,5.94,1.82,1.73,0,4.56-.36,5.19-.52l-2.16-4.64Z"/>
      <polygon class="cls-1" points="89.9 13.83 83.53 13.83 83.53 44.32 105.77 44.32 105.77 38.93 89.9 38.93 89.9 13.83"/>
      <path class="cls-1" d="M265.55,29.14l-4.53-.96c-1.29-.29-2.23-.69-2.82-1.19-.59-.5-.88-1.14-.88-1.94s.43-1.65,1.29-2.24,1.94-.89,3.27-.89,2.52.35,3.34,1.02,1.34,1.5,1.57,2.46l5.57-.84c-.28-1.49-.88-2.76-1.78-3.84-.91-1.08-2.08-1.94-3.56-2.54-1.47-.6-3.22-.9-5.24-.9s-3.96.33-5.57,1.01c-1.59.66-2.84,1.61-3.73,2.82-.89,1.22-1.34,2.64-1.34,4.28s.62,3.57,1.86,4.83c1.25,1.26,3.12,2.16,5.61,2.7l4.48.96c1.17.26,2.06.63,2.66,1.14.59.5.89,1.14.89,1.91s-.45,1.65-1.32,2.27c-.88.62-2.08.92-3.59.92s-2.7-.33-3.62-.98-1.53-1.64-1.84-2.96l-5.85.87c.27,1.67.91,3.09,1.91,4.26,1.01,1.17,2.3,2.06,3.89,2.66s3.4.9,5.45.9,4.17-.36,5.86-1.08c1.69-.72,3.03-1.71,3.98-2.99.96-1.28,1.44-2.76,1.44-4.46s-.61-3.42-1.83-4.61-3.09-2.06-5.6-2.61h.01Z"/>
      <path class="cls-1" d="M217.71,17.6c-7.53,0-13.64,6.1-13.64,13.64s6.1,13.64,13.64,13.64,13.64-6.1,13.64-13.64-6.1-13.64-13.64-13.64ZM217.71,39.37c-4.5,0-8.15-3.65-8.15-8.15s3.65-8.15,8.15-8.15,8.15,3.65,8.15,8.15-3.65,8.15-8.15,8.15Z"/>
      <path class="cls-1" d="M161.46,17.6c-7.53,0-13.64,6.1-13.64,13.64s6.1,13.64,13.64,13.64,13.64-6.1,13.64-13.64-6.1-13.64-13.64-13.64ZM161.46,39.37c-4.5,0-8.15-3.65-8.15-8.15s3.65-8.15,8.15-8.15,8.15,3.65,8.15,8.15-3.65,8.15-8.15,8.15Z"/>
      <g>
        <path class="cls-1" d="M113.1,11.63c-.96,0-1.8.33-2.46.99s-.99,1.48-.99,2.46.33,1.78.99,2.45,1.48.99,2.46.99,1.77-.33,2.43-.99,1.01-1.48,1.01-2.45-.34-1.8-1.01-2.46-1.48-.99-2.43-.99Z"/>
        <polygon class="cls-1" points="105.07 21.5 105.07 26.89 110.01 26.89 110.01 44.32 116.17 44.32 116.17 21.5 110.01 21.5 105.07 21.5"/>
      </g>
      <path class="cls-1" d="M195.88,28.83c2.68-1.16,4.54-3.73,4.54-6.71,0-4.07-4.17-7.45-9.22-7.45h-12.18v29.65h14.03c4.63.01,8.39-3.77,8.39-8.18,0-3.46-2.33-6.2-5.57-7.31ZM184.65,19.04h4.83c1.68,0,2.95.38,3.83,1.12.87.75,1.31,1.71,1.31,2.88,0,.88-.23,1.63-.68,2.26-.45.63-1.07,1.12-1.86,1.46-.79.35-1.68.52-2.69.52h-4.75v-8.24ZM191.22,39.92h-6.57v-8.74h6.57c2.55,0,4.62,1.96,4.62,4.37s-2.07,4.37-4.62,4.37Z"/>
    </g>
    <path class="cls-1" d="M56.44,23.7c-.2-9.19-6.06-17.08-15.42-21.12-7.9-3.41-17.35-3.43-25.27-.06C6.97,6.26.93,14.3.3,22.2c-.28,3.53-.42,7.46-.18,10.49.05.63.46,3.65.6,4.3,2.5,11.74,12.89,17.73,21.77,19.07,2.93.44,5.84.63,10,.25,4.52-.41,9.33-2.24,13.27-4.9,4.84-3.27,8.18-7.7,9.77-12.79,1.22-3.91,1-11.18.91-14.92ZM6.12,14.73C11.05,7.05,20.6,3.77,28.49,3.77c.59,0,1.17.02,1.74.05,9.66.61,17.64,5.45,21.37,12.93.41,1.15.72,2.25.96,3.29-3.65-5.33-8.85-8.19-12.69-9.67-4.53-1.75-9.58-2.44-14.22-1.97-5.53.57-10.16,2.81-13.4,6.46-2.43,2.74-3.69,6.01-3.66,9.44.04,3.4,1.41,6.72,3.88,9.36,7.74,8.29,22.83,8.61,31.05.66.54-.52,1-1.03,1.4-1.54-.15,2.45-1.35,6.66-7.24,9.62-8.65,4.36-22.01,1.7-29.17-5.8-5.97-6.25-6.91-14.84-2.4-21.88ZM12.69,28.28c.37-.74.86-1.47,1.43-2.14,3.12-3.67,8.42-5.85,14.21-5.85.03,0,.07,0,.1,0,5.84.03,11.15,2.28,14.22,6.04.52.63.95,1.29,1.29,1.96-1.19,2.29-3.05,3.87-4.47,4.82-6.5,4.35-16.21,4.27-22.6-.2-1.34-.93-3.08-2.47-4.2-4.62ZM8.68,41.47c3.75,3.11,7.68,4.7,10.31,5.48,3,.89,7.64,1.8,12.72,1.14,4.84-.64,8.89-2.55,12.03-5.69,2.8-2.8,4.33-6.36,4.3-10.02-.02-3.71-1.63-7.31-4.52-10.11-6.63-6.45-16.78-6.77-23.4-4.34-2.61.96-5.94,2.73-8.46,5.93.1-2.15,1.03-4.14,2.11-5.54,3.75-4.86,9.49-6.07,13.64-6.23,5.14-.2,10.79,1.13,15.11,3.57,7.45,4.21,13.37,12.84,9.77,22.62-2.28,6.19-7.13,9.64-10.8,11.45-4.46,2.19-9.89,3.31-14.88,3.05-4.9-.25-10.07-1.94-14.19-4.65-3.33-2.19-7.52-6.08-8.78-12.3,1.32,2.08,3.01,3.97,5.04,5.66Z"/>
  </g>
</svg>