<?xml version="1.0" encoding="UTF-8"?>
<svg id="_图层_2" data-name="图层 2" xmlns="http://www.w3.org/2000/svg" viewBox="0 0 520 520">
  <g id="Layer_1" data-name="Layer 1">
    <path d="M519.34,218.06c-1.87-84.57-55.8-157.21-141.86-194.37-72.71-31.41-159.64-31.6-232.53-.51C64.15,57.64,8.51,131.55,2.76,204.25c-2.57,32.51-3.83,68.66-1.64,96.49.46,5.8,4.19,33.56,5.48,39.58,23.05,108.06,118.58,163.17,200.28,175.5,26.99,4.07,53.74,5.79,92,2.29,41.59-3.8,85.89-20.65,122.12-45.1,44.55-30.05,75.25-70.9,89.93-117.7,11.27-35.95,9.17-102.87,8.41-137.25ZM56.3,135.58c45.4-70.73,133.23-100.92,205.87-100.92,5.43,0,10.78.17,16.02.5,88.85,5.65,162.29,50.11,196.66,118.98,3.8,10.58,6.65,20.7,8.8,30.29-33.59-49.06-81.41-75.37-116.76-88.99-41.72-16.07-88.17-22.48-130.8-18.09-50.88,5.26-93.53,25.83-123.32,59.49-22.34,25.24-33.97,55.28-33.64,86.88.33,31.26,13,61.85,35.67,86.13,71.24,76.3,210.11,79.26,285.75,6.08,4.97-4.81,9.16-9.47,12.85-14.18-1.39,22.51-12.42,61.25-66.61,88.55-79.59,40.1-202.52,15.65-268.45-53.37-54.97-57.55-63.62-136.59-22.04-201.36ZM116.75,260.25c3.45-6.82,7.93-13.53,13.19-19.72,28.7-33.76,77.52-53.85,130.77-53.85.32,0,.64,0,.96,0,53.73.24,102.64,21.01,130.85,55.56,4.76,5.83,8.74,11.87,11.9,18.02-10.93,21.08-28.07,35.61-41.13,44.36-59.81,40.03-149.19,39.26-207.92-1.82-12.3-8.6-28.38-22.69-38.61-42.55ZM79.91,381.63c34.51,28.65,70.65,43.22,94.89,50.4,27.59,8.16,70.29,16.61,117.07,10.44,44.57-5.87,81.8-23.5,110.66-52.4,25.74-25.78,39.8-58.53,39.6-92.21-.2-34.17-14.96-67.23-41.55-93.07-61.04-59.33-154.4-62.29-215.32-39.92-24.02,8.82-54.63,25.08-77.88,54.53.96-19.8,9.49-38.12,19.41-50.94,34.55-44.68,87.34-55.84,125.55-57.33,47.31-1.84,99.29,10.44,139,32.89,68.59,38.78,122.99,118.17,89.9,208.13-20.95,56.96-65.63,88.72-99.42,105.33-41.04,20.17-90.96,30.43-136.95,28.07-45.05-2.29-92.64-17.88-130.58-42.79-30.66-20.13-69.18-55.97-80.75-113.17,12.17,19.1,27.68,36.51,46.39,52.05Z"/>
  </g>
</svg>