<svg viewBox="0 0 299.994 53.0032" fill="none" xmlns="http://www.w3.org/2000/svg">
<g id="Group">
<path id="Vector" d="M74.0907 53C71.376 53 68.9375 52.5199 66.772 51.5659C64.6065 50.6089 62.8992 49.2001 61.6439 47.3364C60.3885 45.4728 59.7609 43.1701 59.7609 40.4252C59.7609 38.0593 60.2096 36.1072 61.1041 34.5721C62.0017 33.037 63.2225 31.8082 64.7728 30.889C66.3232 29.9698 68.0681 29.2718 70.0171 28.7948C71.9628 28.3178 73.9745 27.9767 76.049 27.7745C78.5597 27.4966 80.5808 27.2597 82.1186 27.0575C83.6564 26.8554 84.7737 26.53 85.4798 26.0752C86.1828 25.6203 86.5374 24.9285 86.5374 23.9967V23.7693C86.5374 22.4363 86.2487 21.296 85.6744 20.3516C85.0969 19.4071 84.259 18.6838 83.1574 18.1815C82.0558 17.6793 80.6844 17.4266 79.0461 17.4266C77.4079 17.4266 76.0176 17.673 74.7999 18.1626C73.5822 18.6522 72.5968 19.3092 71.8404 20.1273C71.0841 20.9454 70.5537 21.8456 70.2462 22.828L60.988 21.3939C61.6784 18.8512 62.8773 16.7317 64.5783 15.0323C66.2793 13.3329 68.3663 12.0505 70.8393 11.1818C73.3123 10.3132 76.0584 9.88045 79.0775 9.88045C81.2305 9.88045 83.3332 10.1331 85.3951 10.6354C87.457 11.1376 89.318 11.9526 90.9845 13.0707C92.6478 14.1921 93.9754 15.664 94.9608 17.4898C95.9463 19.3155 96.439 21.5487 96.439 24.1926V52.1724H86.8732V46.3951H86.528C85.9129 47.5797 85.0561 48.6726 83.9546 49.6802C82.853 50.6878 81.4909 51.4933 79.8653 52.0966C78.2396 52.6999 76.3126 53.0032 74.0844 53.0032L74.0907 53ZM76.6265 45.7508C78.6758 45.7508 80.449 45.3528 81.946 44.5599C83.443 43.7671 84.5979 42.7152 85.4045 41.4075C86.211 40.0998 86.6159 38.6626 86.6159 37.1022V32.2694C86.2832 32.5221 85.7528 32.7558 85.0216 32.9675C84.2904 33.1823 83.4587 33.3718 82.5235 33.5329C81.5882 33.6971 80.653 33.8487 79.7209 33.9846C78.7857 34.1235 77.9603 34.2309 77.2416 34.3068C75.7822 34.5089 74.4578 34.8406 73.2653 35.3081C72.0758 35.7756 71.1343 36.4041 70.4407 37.197C69.7503 37.9898 69.4019 39.029 69.4019 40.3115C69.4019 41.496 69.7095 42.4878 70.3246 43.2933C70.9397 44.0988 71.784 44.7084 72.8604 45.1253C73.9369 45.5391 75.1891 45.7476 76.6265 45.7476V45.7508Z" fill="var(--fill-0, #141414)"/>
<path id="Vector_2" d="M259.364 43.8903C258.903 43.9661 258.749 43.9661 257.984 44.0419C257.215 44.1177 256.587 44.1556 256.1 44.1556C254.566 44.1556 253.471 43.8145 252.815 43.1353C252.162 42.4562 251.835 41.3728 251.835 39.8882V22.9259H259.459V14.3279H251.835V3.50617H241.924V14.3279H237.386V22.9259H241.924V40.8327C241.924 44.4841 243.001 47.2764 245.151 49.2159C247.3 51.1553 250.439 52.1219 254.563 52.1219C257.299 52.1219 261.778 51.5407 262.776 51.2911L259.361 43.8903H259.364Z" fill="var(--fill-0, #141414)"/>
<path id="Vector_3" d="M10.0836 3.50617H0V52.1029H35.2157V43.5112H10.0836V3.50617Z" fill="var(--fill-0, #141414)"/>
<path id="Vector_4" d="M288.269 27.904L281.098 26.3721C279.051 25.9172 277.57 25.2728 276.632 24.4832C275.69 23.6935 275.245 22.6637 275.245 21.3971C275.245 20.1305 275.926 18.7659 277.291 17.8309C278.653 16.8991 280.37 16.419 282.463 16.419C284.556 16.419 286.458 16.9686 287.751 18.0457C289.044 19.1228 289.866 20.4369 290.243 21.9688L299.058 20.6295C298.613 18.2605 297.671 16.2263 296.237 14.5048C294.803 12.7833 292.945 11.4187 290.594 10.4616C288.266 9.50456 285.494 9.02759 282.296 9.02759C279.098 9.02759 276.02 9.5551 273.481 10.6291C270.967 11.6809 268.99 13.1876 267.581 15.1271C266.172 17.0665 265.465 19.3376 265.465 21.9467C265.465 24.5558 266.454 27.6419 268.403 29.6508C270.377 31.6598 273.34 33.097 277.288 33.9561L284.387 35.4881C286.245 35.8956 287.654 36.4926 288.595 37.3075C289.537 38.0972 290.004 39.1269 290.004 40.3462C290.004 41.5655 289.298 42.9774 287.911 43.9598C286.524 44.9421 284.619 45.4191 282.221 45.4191C279.823 45.4191 277.944 44.8916 276.484 43.865C275.028 42.8353 274.061 41.2559 273.569 39.1522L264.307 40.5389C264.731 43.1954 265.742 45.4665 267.339 47.3333C268.936 49.2001 270.983 50.612 273.5 51.5691C276.013 52.5262 278.882 53.0032 282.127 53.0032C285.372 53.0032 288.733 52.4283 291.413 51.2817C294.094 50.1319 296.209 48.5557 297.712 46.5215C299.241 44.4873 299.994 42.1182 299.994 39.4144C299.994 36.7105 299.03 33.9593 297.103 32.0704C295.176 30.1815 292.214 28.7916 288.241 27.9072H288.263L288.269 27.904Z" fill="var(--fill-0, #141414)"/>
<path id="Vector_5" d="M212.502 9.51404C200.583 9.51404 190.898 19.2397 190.898 31.2586C190.898 43.2775 200.561 53.0032 212.502 53.0032C224.444 53.0032 234.107 43.2775 234.107 31.2586C234.107 19.2397 224.444 9.51404 212.502 9.51404ZM212.502 44.2219C205.378 44.2219 199.597 38.4004 199.597 31.2333C199.597 24.0662 205.381 18.2447 212.502 18.2447C219.623 18.2447 225.407 24.0662 225.407 31.2333C225.407 38.4004 219.623 44.2219 212.502 44.2219Z" fill="var(--fill-0, #141414)"/>
<path id="Vector_6" d="M123.413 9.51404C111.494 9.51404 101.809 19.2397 101.809 31.2586C101.809 43.2775 111.472 53.0032 123.413 53.0032C135.355 53.0032 145.018 43.2775 145.018 31.2586C145.018 19.2397 135.355 9.51404 123.413 9.51404ZM123.413 44.2219C116.289 44.2219 110.508 38.4004 110.508 31.2333C110.508 24.0662 116.292 18.2447 123.413 18.2447C130.534 18.2447 136.318 24.0662 136.318 31.2333C136.318 38.4004 130.534 44.2219 123.413 44.2219Z" fill="var(--fill-0, #141414)"/>
<g id="Group_2">
<path id="Vector_7" d="M46.8245 0C45.2961 0 43.9811 0.521187 42.9235 1.58567C41.8659 2.65016 41.348 3.95155 41.348 5.51195C41.348 7.07235 41.8659 8.35163 42.9235 9.41612C43.9811 10.4806 45.2741 11.0018 46.8245 11.0018C48.3748 11.0018 49.6208 10.4806 50.6784 9.41612C51.736 8.35163 52.2758 7.05024 52.2758 5.51195C52.2758 3.97366 51.736 2.65016 50.6784 1.58567C49.6208 0.521187 48.3278 0 46.8245 0Z" fill="var(--fill-0, #141414)"/>
<path id="Vector_8" d="M34.1078 15.7335V24.3221H41.9349V52.1029H51.6921V15.7335H41.9349H34.1078Z" fill="var(--fill-0, #141414)"/>
</g>
<path id="Vector_9" d="M177.939 27.4176C182.182 25.5666 185.136 21.4729 185.136 16.7159C185.136 10.2247 178.536 4.83283 170.536 4.83283H151.244V52.1029H173.47V52.1219C180.811 52.1219 186.761 46.0919 186.761 39.0638C186.761 33.5423 183.077 29.177 177.942 27.4144L177.939 27.4176ZM160.151 11.8104H167.809C170.464 11.8104 172.485 12.4074 173.869 13.6046C175.253 14.7986 175.943 16.3274 175.943 18.1879C175.943 19.584 175.586 20.7843 174.873 21.7888C174.158 22.7933 173.175 23.5703 171.926 24.1199C170.677 24.6695 169.259 24.9443 167.674 24.9443H160.151V11.8104ZM170.558 45.0906H160.151V31.1638H170.558C174.6 31.1638 177.88 34.2815 177.88 38.1288C177.88 41.9761 174.603 45.0937 170.558 45.0937V45.0906Z" fill="var(--fill-0, #141414)"/>
</g>
</svg>
